<?xml version="1.0" encoding="UTF-8"?>
<svg width="98px" height="30px" viewBox="0 0 98 30" version="1.1" xmlns="http://www.w3.org/2000/svg" xmlns:xlink="http://www.w3.org/1999/xlink">
    <!-- Generator: Sketch 46.1 (44463) - http://www.bohemiancoding.com/sketch -->
    <title>8base-logo-red-black</title>
    <desc>Created with Sketch.</desc>
    <defs>
        <polygon id="path-1" points="0.0171428571 30 97.1311429 30 97.1311429 0.0534285714 0.0171428571 0.0534285714"></polygon>
    </defs>
    <g id="Page-1" stroke="none" stroke-width="1" fill="none" fill-rule="evenodd">
        <g id="Styleguide" transform="translate(-249.000000, -210.000000)">
            <g id="8base-logo-red-white" transform="translate(249.000000, 210.000000)">
                <path d="M42.2711429,22.5277143 C44.9597143,22.5277143 47.1042857,20.4791429 47.1042857,17.5342857 C47.1042857,14.5577143 44.9597143,12.6374286 42.2711429,12.6374286 C39.8705714,12.6374286 37.31,14.3337143 37.31,17.5342857 C37.31,20.7031429 39.6145714,22.5277143 42.2711429,22.5277143 Z M37.278,12.3491429 C38.2702857,10.6528571 40.3508571,9.78857143 42.5274286,9.78857143 C46.6562857,9.78857143 50.0811429,12.7974286 50.0811429,17.5665714 C50.0811429,22.3034286 46.5922857,25.3762857 42.4951429,25.3762857 C40.4148571,25.3762857 38.2702857,24.448 37.278,22.7517143 L37.278,23.744 C37.278,24.544 36.638,25.2162857 35.8057143,25.2162857 C35.0057143,25.2162857 34.3654286,24.544 34.3654286,23.744 L34.3654286,6.14942857 C34.3654286,5.34914286 35.0057143,4.67714286 35.8057143,4.67714286 C36.638,4.67714286 37.278,5.34914286 37.278,6.14942857 L37.278,12.3491429 L37.278,12.3491429 Z" id="Fill-1" fill="#000"></path>
                <path d="M59.6825714,12.6374286 C56.994,12.6374286 54.8177143,14.5577143 54.8177143,17.5342857 C54.8177143,20.4791429 56.994,22.5277143 59.6825714,22.5277143 C62.3394286,22.5277143 64.644,20.7031429 64.644,17.5342857 C64.644,14.3337143 62.0831429,12.6374286 59.6825714,12.6374286 Z M64.6757143,22.7517143 C63.6837143,24.448 61.5071429,25.3762857 59.4265714,25.3762857 C55.3297143,25.3762857 51.8408571,22.3034286 51.8408571,17.5665714 C51.8408571,12.7974286 55.3297143,9.78857143 59.4265714,9.78857143 C61.5071429,9.78857143 63.6837143,10.6528571 64.6757143,12.3491429 L64.6757143,11.4211429 C64.6757143,10.6208571 65.316,9.94857143 66.1162857,9.94857143 C66.9482857,9.94857143 67.5885714,10.6208571 67.5885714,11.4211429 L67.5885714,23.744 C67.5885714,24.544 66.9482857,25.2162857 66.1162857,25.2162857 C65.316,25.2162857 64.6757143,24.544 64.6757143,23.744 L64.6757143,22.7517143 L64.6757143,22.7517143 Z" id="Fill-2" fill="#000"></path>
                <path d="M75.462,22.8157143 C76.9665714,22.8157143 78.0868571,22.0154286 78.0868571,20.8311429 C78.0868571,19.7428571 77.2225714,19.1988571 76.1022857,18.9428571 L74.0537143,18.4625714 C71.5251429,17.7905714 70.0208571,16.5422857 70.0208571,14.1737143 C70.0208571,11.7091429 72.2294286,9.78857143 75.238,9.78857143 C77.1905714,9.78857143 79.0788571,10.4928571 79.9431429,12.2211429 C80.0711429,12.4454286 80.1031429,12.7014286 80.1031429,12.8934286 C80.1031429,13.8537143 79.1748571,14.2057143 78.7268571,14.2057143 C78.3108571,14.2057143 77.9905714,13.9817143 77.6705714,13.5654286 C76.9982857,12.6694286 76.2302857,12.3174286 75.302,12.3174286 C73.8937143,12.3174286 72.9654286,13.1494286 72.9654286,14.2697143 C72.9654286,15.23 73.8937143,15.774 74.854,15.998 L77.0625714,16.5422857 C80.1671429,17.3102857 80.9354286,19.1988571 80.9354286,20.8951429 C80.9354286,23.6797143 78.2465714,25.3762857 75.142,25.3762857 C72.8374286,25.3762857 70.4688571,24.096 69.7648571,21.7914286 C69.7328571,21.6314286 69.7008571,21.4714286 69.7008571,21.3434286 C69.7008571,20.5751429 70.4371429,20.1911429 71.1091429,20.1911429 C71.6211429,20.1911429 72.1334286,20.4471429 72.3574286,21.0231429 C72.7734286,22.1114286 73.9577143,22.8157143 75.462,22.8157143" id="Fill-3" fill="#000"></path>
                <g id="Group-7">
                    <mask id="mask-2" fill="white">
                        <use xlink:href="#path-1"></use>
                    </mask>
                    <g id="Clip-5"></g>
                    <path d="M94.2502857,16.4142857 C93.8982857,13.9177143 92.106,12.4131429 89.7051429,12.4131429 C87.2405714,12.4131429 85.3202857,13.9177143 84.9682857,16.4142857 L94.2502857,16.4142857 Z M95.9785714,18.6865714 L84.9682857,18.6865714 C85.3202857,21.1831429 87.2728571,22.7517143 89.8014286,22.7517143 C91.5937143,22.7517143 92.586,22.3034286 93.6102857,21.1831429 C94.1542857,20.5751429 94.9865714,20.3831429 95.5625714,20.7991429 C96.1388571,21.2474286 96.2668571,22.1114286 95.8188571,22.6237143 C94.3782857,24.48 92.138,25.3762857 89.7051429,25.3762857 C85.4482857,25.3762857 82.0554286,22.2714286 82.0554286,17.5342857 C82.0554286,12.7974286 85.4482857,9.78857143 89.7051429,9.78857143 C93.9622857,9.78857143 97.1311429,12.7974286 97.1311429,17.5342857 C97.1311429,18.2065714 96.5868571,18.6865714 95.9785714,18.6865714 L95.9785714,18.6865714 Z" id="Fill-4" fill="#000" mask="url(#mask-2)"></path>
                    <path d="M14.9731429,30 C6.70371429,30 0,23.296 0,15.0265714 C0,6.75714286 6.70371429,0.0534285714 14.9731429,0.0534285714 C23.2428571,0.0534285714 29.9465714,6.75714286 29.9465714,15.0265714 C29.9465714,23.296 23.2428571,30 14.9731429,30 Z" id="Fill-6" fill="#D83F37" mask="url(#mask-2)"></path>
                </g>
                <path d="M14.9731429,8.05542857 C13.7894286,8.05542857 12.8748571,9.05114286 12.8748571,10.2077143 C12.8748571,11.3648571 13.8162857,12.3331429 14.9731429,12.3331429 C16.1302857,12.3331429 17.0985714,11.3648571 17.0985714,10.2077143 C17.0985714,9.024 16.1568571,8.05542857 14.9731429,8.05542857 Z M14.9731429,15.8577143 C13.2782857,15.8577143 11.9062857,17.2297143 11.9062857,18.9245714 C11.9062857,20.6197143 13.2782857,21.9914286 14.9731429,21.9914286 C16.6682857,21.9914286 18.0402857,20.6197143 18.0402857,18.9245714 C18.0402857,17.2297143 16.6682857,15.8577143 14.9731429,15.8577143 Z M14.9731429,25.3811429 C11.422,25.3811429 8.328,22.5297143 8.328,18.9245714 C8.328,16.7185714 9.35057143,14.9428571 11.2874286,13.9205714 C10.1845714,12.8445714 9.51171429,11.7414286 9.51171429,10.154 C9.51171429,7.06028571 11.8791429,4.666 14.9731429,4.666 C18.0671429,4.666 20.4614286,7.06028571 20.4614286,10.154 C20.4614286,11.7682857 19.762,12.8445714 18.6588571,13.9205714 C20.596,14.9428571 21.6182857,16.7185714 21.6182857,18.9245714 C21.6182857,22.5297143 18.5245714,25.3811429 14.9731429,25.3811429 L14.9731429,25.3811429 Z" id="Fill-8" fill="#fff"></path>
            </g>
        </g>
    </g>
</svg>